G04 DipTrace 2.4.0.2*
%INTop.gtl*%
%MOIN*%
%ADD11C,0.006*%
%ADD14C,0.025*%
%ADD15R,0.0512X0.0591*%
%ADD16R,0.0669X0.063*%
%ADD17R,0.0551X0.0551*%
%ADD18C,0.0551*%
%ADD19R,0.0709X0.0157*%
%FSLAX44Y44*%
G04*
G70*
G90*
G75*
G01*
%LNTop*%
%LPD*%
X8977Y7626D2*
D11*
Y7139D1*
X6742D1*
X6042Y6440D1*
Y5781D1*
X6539Y5284D1*
X7176D1*
X7182Y5291D1*
X8229Y7626D2*
X8215D1*
X7965Y7377D1*
X6553D1*
X5750Y6574D1*
Y5733D1*
X6448Y5035D1*
X7182D1*
X7013Y8900D2*
X6792D1*
Y8196D1*
X6511Y7916D1*
Y7418D1*
X6553Y7377D1*
X9914Y9485D2*
Y9290D1*
X9868Y9244D1*
Y8946D1*
Y8305D1*
X9186Y7623D1*
X8980D1*
X8977Y7626D1*
X9868Y8946D2*
X8475D1*
Y9637D1*
X6101D1*
Y8775D1*
X5041Y7714D1*
X4700D1*
X4682Y7696D1*
Y6909D2*
X4574D1*
X5750Y5733D1*
X4682Y6122D2*
X4698D1*
X5412Y5408D1*
Y5064D1*
X5697Y4779D1*
X7182D1*
X9048Y9485D2*
Y9548D1*
X8956D1*
X8622Y9882D1*
X5838D1*
Y8977D1*
X4955Y8094D1*
X4245D1*
Y7303D1*
Y6560D1*
X4682Y6122D1*
X7879Y8900D2*
Y9440D1*
X6386D1*
Y8676D1*
X5012Y7303D1*
X4245D1*
X7377Y7916D2*
X7362D1*
Y8154D1*
X8107Y8900D1*
X7879D1*
X12182Y6909D2*
X12229D1*
X11225Y5905D1*
Y5314D1*
X10970Y5059D1*
X9490D1*
X9466Y5035D1*
Y5291D2*
X10733D1*
X10915Y5473D1*
Y6383D1*
X12228Y7696D1*
X12182D1*
X9466Y5547D2*
X10443D1*
X10654Y5758D1*
Y6655D1*
X11528Y7529D1*
Y7830D1*
X12182Y8484D1*
Y4547D2*
X11948D1*
X11668Y4267D1*
X9466D1*
X7182Y5803D2*
X6627D1*
X6595Y5835D1*
Y6135D1*
X7157Y6697D1*
X9666D1*
Y7321D1*
X10490Y8145D1*
Y8782D1*
X11077Y9368D1*
Y10305D1*
X5334D1*
Y9923D1*
X4682Y9271D1*
X9466Y4779D2*
X11178D1*
X11493Y5094D1*
Y5432D1*
X12182Y6122D1*
X9466Y4523D2*
X11371D1*
X12182Y5334D1*
X7182Y5547D2*
X6602D1*
X6329Y5820D1*
Y6308D1*
X6955Y6934D1*
X9435D1*
Y7485D1*
X10265Y8315D1*
Y8881D1*
X10852Y9468D1*
Y10117D1*
X5571D1*
Y9373D1*
X4682Y8484D1*
X9466Y5803D2*
X10192D1*
X10383Y5994D1*
Y6856D1*
X11223Y7696D1*
Y8312D1*
X12182Y9271D1*
X9466Y6059D2*
X10028D1*
X10139Y6169D1*
Y7062D1*
X10979Y7902D1*
Y8555D1*
X11523Y9100D1*
Y9400D1*
X12182Y10059D1*
X7182Y6059D2*
Y6310D1*
X7331Y6459D1*
X9878D1*
X9891Y6472D1*
Y7208D1*
X10702Y8020D1*
Y8669D1*
X11302Y9268D1*
Y10479D1*
X11289Y10492D1*
X5116D1*
X4682Y10059D1*
X7182Y4523D2*
X5493D1*
X4682Y5334D1*
X7182Y4267D2*
X5120D1*
X4841Y4547D1*
X4682D1*
X12708Y10264D2*
D14*
X12826D1*
X12747Y10016D2*
X12825D1*
X12661Y9767D2*
X12826D1*
X4095Y9518D2*
X4173D1*
X12689D2*
X12826D1*
X12747Y9269D2*
X12825D1*
X4095Y9021D2*
X4181D1*
X12685D2*
X12826D1*
X4095Y8772D2*
X4204D1*
X12665D2*
X12826D1*
X8505Y8523D2*
X9549D1*
X12747D2*
X12825D1*
X8001Y8275D2*
X9397D1*
X12704D2*
X12826D1*
X12634Y8026D2*
X12830D1*
X12743Y7777D2*
X12830D1*
X5681Y7529D2*
X5885D1*
X12720D2*
X12829D1*
X5431Y7280D2*
X6014D1*
X12599D2*
X12830D1*
X5236Y7031D2*
X5764D1*
X12736D2*
X12827D1*
X5232Y6783D2*
X5518D1*
X12732D2*
X12826D1*
X12595Y6534D2*
X12830D1*
X12724Y6285D2*
X12830D1*
X7825Y6037D2*
X8822D1*
X12740D2*
X12829D1*
X4099Y5788D2*
X4236D1*
X7825D2*
X8822D1*
X12634D2*
X12830D1*
X7825Y5539D2*
X8822D1*
X12708D2*
X12830D1*
X7825Y5290D2*
X8822D1*
X12747D2*
X12832D1*
X4099Y5042D2*
X4205D1*
X7825D2*
X8822D1*
X12747D2*
X12832D1*
X4099Y4793D2*
X4175D1*
X7825D2*
X8822D1*
X12747D2*
X12832D1*
X7825Y4544D2*
X8822D1*
X12747D2*
X12832D1*
X4099Y4296D2*
X4182D1*
X7825D2*
X8822D1*
X12747D2*
X12832D1*
X7978Y8187D2*
X8750Y8183D1*
X8831Y8187D1*
X9335D1*
X9573Y8430D1*
Y8653D1*
X8478Y8651D1*
X8479Y8320D1*
X7975D1*
X7977Y8187D1*
X6091Y7336D2*
X5912D1*
Y7785D1*
X5218Y7092D1*
X5203Y7054D1*
X5223Y6909D1*
X5209Y6785D1*
X5183Y6716D1*
X5454Y6446D1*
X5455Y6574D1*
X5483Y6698D1*
X5541Y6782D1*
X6096Y7338D1*
X4200Y9518D2*
X4142D1*
Y10514D1*
X4066Y10513D1*
X4071Y8329D1*
X4147Y8411D1*
X4144Y8535D1*
X4170Y8657D1*
X4224Y8770D1*
X4311Y8875D1*
X4236Y8967D1*
X4178Y9077D1*
X4147Y9198D1*
X4144Y9323D1*
X4170Y9445D1*
X4205Y9519D1*
X4315Y5726D2*
X4236Y5817D1*
X4178Y5928D1*
X4147Y6049D1*
X4144Y6173D1*
X4157Y6230D1*
X4076Y6311D1*
Y4138D1*
X4077Y4073D1*
X4418Y4075D1*
X4317Y4148D1*
X4236Y4242D1*
X4178Y4353D1*
X4147Y4474D1*
X4144Y4598D1*
X4170Y4720D1*
X4224Y4833D1*
X4311Y4938D1*
X4236Y5030D1*
X4178Y5140D1*
X4147Y5261D1*
X4144Y5386D1*
X4170Y5508D1*
X4224Y5621D1*
X4311Y5725D1*
X12665Y5087D2*
X12723D1*
Y4049D1*
X12854Y4048D1*
X12855Y6423D1*
X12851Y10513D1*
X12472D1*
X12584Y10421D1*
X12656Y10319D1*
X12703Y10204D1*
X12723Y10059D1*
X12709Y9935D1*
X12666Y9818D1*
X12598Y9713D1*
X12550Y9667D1*
X12656Y9532D1*
X12703Y9416D1*
X12723Y9271D1*
X12709Y9147D1*
X12666Y9030D1*
X12598Y8926D1*
X12550Y8880D1*
X12656Y8744D1*
X12703Y8629D1*
X12723Y8484D1*
X12709Y8360D1*
X12666Y8243D1*
X12598Y8138D1*
X12550Y8093D1*
X12656Y7957D1*
X12703Y7841D1*
X12723Y7696D1*
X12709Y7573D1*
X12666Y7455D1*
X12598Y7351D1*
X12550Y7305D1*
X12656Y7169D1*
X12703Y7054D1*
X12723Y6909D1*
X12709Y6785D1*
X12666Y6668D1*
X12598Y6563D1*
X12550Y6518D1*
X12656Y6382D1*
X12703Y6267D1*
X12723Y6122D1*
X12709Y5998D1*
X12666Y5880D1*
X12598Y5776D1*
X12550Y5730D1*
X12656Y5595D1*
X12703Y5479D1*
X12723Y5334D1*
X12709Y5210D1*
X12664Y5090D1*
X7802Y6164D2*
X7798Y5715D1*
X7802Y5766D1*
X7798Y5203D1*
X7802Y5254D1*
X7798Y4691D1*
X7802Y4742D1*
X7798Y4180D1*
X7802Y4236D1*
Y4060D1*
X8846D1*
X8851Y4611D1*
X8847Y4560D1*
X8850Y5123D1*
X8847Y5072D1*
X8850Y5635D1*
X8847Y5584D1*
X8850Y6147D1*
X8847Y6090D1*
Y6164D1*
X7804D1*
X7802Y5459D1*
Y4947D1*
Y4435D1*
Y4236D1*
D15*
X8229Y7626D3*
X8977D3*
D16*
X6511Y7916D3*
X7377D3*
X9914Y9485D3*
X9048D3*
X7013Y8900D3*
X7879D3*
D17*
X4682Y10059D3*
D18*
Y9271D3*
Y8484D3*
Y7696D3*
Y6909D3*
Y6122D3*
Y5334D3*
Y4547D3*
D17*
X12182D3*
D18*
Y5334D3*
Y6122D3*
Y6909D3*
Y7696D3*
Y8484D3*
Y9271D3*
Y10059D3*
D19*
X7182Y6059D3*
Y5803D3*
Y5547D3*
Y5291D3*
Y5035D3*
Y4779D3*
Y4523D3*
Y4267D3*
X9466D3*
Y4523D3*
Y4779D3*
Y5035D3*
Y5291D3*
Y5547D3*
Y5803D3*
Y6059D3*
M02*
