M48
INCH
T01C0.022
T02C0.0295
T03C0.0315
T04C0.0354
T05C0.0394
%
T01
X+011940Y+005440
X+008940Y+005440
X+007940Y+009940
X+004940Y+009940
X+018440Y+007940
X+021440Y+007940
T02
X+009940Y+013940
X+009440Y+013440
X+008940Y+013940
T03
X+016940Y+006440
X+017727Y+006440
X+018515Y+006440
T04
X+015440Y+011440
X+014440Y+011440
X+013440Y+011440
X+012440Y+011440
X+011440Y+011440
X+010440Y+011440
X+009440Y+011440
X+009440Y+008440
X+010440Y+008440
X+011440Y+008440
X+012440Y+008440
X+013440Y+008440
X+014440Y+008440
X+015440Y+008440
T05
X+013440Y+014940
X+013440Y+013940
X+019440Y+010440
X+020440Y+010440
T00
M30
