M48
INCH
T01C0.022
T02C0.0315
T03C0.0354
T04C0.0394
%
T01
X+005440Y+006940
X+008440Y+006940
X+005440Y+010940
X+005440Y+013940
X+016940Y+008940
X+019940Y+008940
T02
X+014440Y+006940
X+015227Y+006940
X+016015Y+006940
T03
X+009940Y+006940
X+010940Y+006940
X+010440Y+010877
X+009440Y+010877
X+008440Y+010877
X+007440Y+010877
X+007440Y+013877
X+008440Y+013877
X+009440Y+013877
X+010440Y+013877
X+011440Y+013877
X+012440Y+013877
X+013440Y+013877
X+013440Y+010877
X+012440Y+010877
X+011440Y+010877
T04
X+011440Y+016940
X+011440Y+015940
X+017440Y+011440
X+018440Y+011440
X+007440Y+004940
X+006440Y+004940
T00
M30
