G04 DipTrace 2.4.0.2*
%INTop.gtl*%
%MOIN*%
%ADD13C,0.013*%
%ADD14C,0.025*%
%ADD15R,0.0591X0.0591*%
%ADD16C,0.0591*%
%ADD17C,0.05*%
%ADD18C,0.05*%
%ADD19R,0.0551X0.0551*%
%ADD20C,0.0551*%
%FSLAX44Y44*%
G04*
G70*
G90*
G75*
G01*
%LNTop*%
%LPD*%
X8940Y8017D2*
D13*
X6517D1*
X5940Y7440D1*
Y4940D2*
Y5787D1*
Y6440D1*
Y5787D2*
X6787D1*
X8230Y7230D1*
X8940D1*
Y6443D2*
Y4940D1*
X4090Y9566D2*
D14*
X10292D1*
X4090Y9318D2*
X10292D1*
X4090Y9069D2*
X10292D1*
X4090Y8820D2*
X10292D1*
X4090Y8572D2*
X10292D1*
X4090Y8323D2*
X6366D1*
X9412D2*
X10292D1*
X4090Y8074D2*
X6081D1*
X9502D2*
X10292D1*
X4090Y7825D2*
X5507D1*
X9471D2*
X10292D1*
X4090Y7577D2*
X5370D1*
X6569D2*
X8499D1*
X9381D2*
X10292D1*
X4090Y7328D2*
X5366D1*
X6514D2*
X7835D1*
X9498D2*
X10292D1*
X4090Y7079D2*
X5487D1*
X6393D2*
X7589D1*
X9483D2*
X10292D1*
X4090Y6831D2*
X5354D1*
X6526D2*
X7339D1*
X9506D2*
X10292D1*
X4090Y6582D2*
X5354D1*
X6526D2*
X7089D1*
X8072D2*
X8374D1*
X9506D2*
X10292D1*
X4090Y6333D2*
X5354D1*
X6526D2*
X6843D1*
X7826D2*
X8374D1*
X9506D2*
X10292D1*
X4090Y6085D2*
X5354D1*
X7576D2*
X8374D1*
X9506D2*
X10292D1*
X4090Y5836D2*
X5585D1*
X7326D2*
X8585D1*
X9295D2*
X10292D1*
X4090Y5587D2*
X5585D1*
X7080D2*
X8585D1*
X9295D2*
X10292D1*
X4090Y5339D2*
X5585D1*
X6295D2*
X8585D1*
X9295D2*
X10292D1*
X4090Y5090D2*
X5421D1*
X6459D2*
X8421D1*
X9459D2*
X10292D1*
X4090Y4841D2*
X5409D1*
X6471D2*
X8409D1*
X9471D2*
X10292D1*
X4090Y4593D2*
X5534D1*
X6346D2*
X8534D1*
X9346D2*
X10292D1*
X4090Y4344D2*
X10292D1*
X4090Y4095D2*
X10292D1*
X5505Y7000D2*
X5595D1*
X5507Y7084D1*
X5439Y7189D1*
X5396Y7306D1*
X5380Y7430D1*
X5391Y7554D1*
X5430Y7673D1*
X5494Y7780D1*
X5581Y7870D1*
X5685Y7939D1*
X5801Y7983D1*
X5925Y8000D1*
X6022Y7992D1*
X6284Y8251D1*
X6387Y8320D1*
X6517Y8347D1*
X8513D1*
X8559Y8401D1*
X8657Y8478D1*
X8770Y8531D1*
X8893Y8556D1*
X9017Y8552D1*
X9138Y8520D1*
X9248Y8462D1*
X9341Y8379D1*
X9414Y8278D1*
X9461Y8162D1*
X9481Y8017D1*
X9466Y7894D1*
X9424Y7776D1*
X9356Y7672D1*
X9308Y7626D1*
X9414Y7490D1*
X9461Y7375D1*
X9481Y7230D1*
X9466Y7106D1*
X9422Y6986D1*
X9481Y6983D1*
Y5902D1*
X9274D1*
X9270Y5337D1*
X9334Y5272D1*
X9402Y5168D1*
X9443Y5050D1*
X9455Y4940D1*
X9440Y4816D1*
X9395Y4700D1*
X9324Y4597D1*
X9231Y4515D1*
X9120Y4458D1*
X8999Y4428D1*
X8874Y4429D1*
X8753Y4460D1*
X8643Y4519D1*
X8551Y4603D1*
X8481Y4706D1*
X8438Y4823D1*
X8425Y4947D1*
X8442Y5071D1*
X8488Y5187D1*
X8560Y5288D1*
X8611Y5331D1*
X8606Y5902D1*
X8399D1*
Y6898D1*
X8287Y6820D1*
X7021Y5554D1*
X6918Y5484D1*
X6787Y5457D1*
X6268D1*
X6270Y5338D1*
X6334Y5272D1*
X6402Y5168D1*
X6443Y5050D1*
X6455Y4940D1*
X6440Y4816D1*
X6395Y4700D1*
X6324Y4597D1*
X6231Y4515D1*
X6120Y4458D1*
X5999Y4428D1*
X5874Y4429D1*
X5753Y4460D1*
X5643Y4519D1*
X5551Y4603D1*
X5481Y4706D1*
X5438Y4823D1*
X5425Y4947D1*
X5442Y5071D1*
X5488Y5187D1*
X5560Y5288D1*
X5611Y5331D1*
X5610Y5877D1*
X5380Y5880D1*
Y7000D1*
X5505D1*
X6290D2*
X6500D1*
Y6114D1*
X6647Y6117D1*
X7997Y7463D1*
X8100Y7533D1*
X8230Y7560D1*
X8515D1*
X8568Y7621D1*
X8440Y7687D1*
X6655D1*
X6494Y7527D1*
X6500Y7440D1*
X6486Y7316D1*
X6445Y7198D1*
X6379Y7092D1*
X6288Y7002D1*
X10190Y9815D2*
X4065D1*
Y4065D1*
X10315D1*
Y9815D1*
X10190D1*
D15*
X5940Y6440D3*
D16*
Y7440D3*
D17*
Y4940D3*
D18*
X8940D3*
D19*
Y6443D3*
D20*
Y7230D3*
Y8017D3*
M02*
